<svg id="visual" viewBox="0 0 900 600" width="900" height="600" xmlns="http://www.w3.org/2000/svg" xmlns:xlink="http://www.w3.org/1999/xlink" version="1.1"><g fill="#009473"><circle r="14" cx="663" cy="132"></circle><circle r="4" cx="835" cy="101"></circle><circle r="7" cx="467" cy="491"></circle><circle r="7" cx="529" cy="346"></circle><circle r="4" cx="11" cy="215"></circle><circle r="10" cx="463" cy="294"></circle><circle r="7" cx="879" cy="597"></circle><circle r="10" cx="647" cy="391"></circle><circle r="12" cx="724" cy="489"></circle><circle r="7" cx="89" cy="203"></circle><circle r="12" cx="358" cy="560"></circle><circle r="7" cx="626" cy="246"></circle><circle r="3" cx="470" cy="110"></circle><circle r="7" cx="666" cy="595"></circle><circle r="10" cx="39" cy="530"></circle><circle r="7" cx="892" cy="80"></circle><circle r="4" cx="554" cy="558"></circle><circle r="12" cx="521" cy="17"></circle><circle r="10" cx="188" cy="456"></circle><circle r="8" cx="359" cy="239"></circle><circle r="9" cx="96" cy="567"></circle><circle r="10" cx="310" cy="478"></circle><circle r="4" cx="770" cy="311"></circle><circle r="8" cx="874" cy="462"></circle><circle r="7" cx="692" cy="420"></circle><circle r="3" cx="502" cy="316"></circle><circle r="7" cx="78" cy="15"></circle><circle r="11" cx="534" cy="70"></circle><circle r="6" cx="613" cy="349"></circle><circle r="5" cx="196" cy="332"></circle><circle r="4" cx="134" cy="547"></circle><circle r="9" cx="67" cy="112"></circle><circle r="12" cx="145" cy="130"></circle><circle r="7" cx="95" cy="237"></circle><circle r="8" cx="674" cy="219"></circle><circle r="12" cx="666" cy="100"></circle><circle r="11" cx="237" cy="405"></circle><circle r="3" cx="746" cy="403"></circle><circle r="3" cx="623" cy="128"></circle><circle r="12" cx="722" cy="362"></circle><circle r="4" cx="16" cy="313"></circle><circle r="5" cx="3" cy="286"></circle><circle r="9" cx="310" cy="310"></circle><circle r="12" cx="492" cy="380"></circle><circle r="12" cx="587" cy="200"></circle><circle r="7" cx="68" cy="495"></circle><circle r="4" cx="746" cy="241"></circle><circle r="5" cx="186" cy="222"></circle><circle r="6" cx="574" cy="434"></circle><circle r="8" cx="160" cy="391"></circle></g></svg>