<svg id="visual" viewBox="0 0 900 600" width="900" height="600" xmlns="http://www.w3.org/2000/svg" xmlns:xlink="http://www.w3.org/1999/xlink" version="1.1"><rect x="0" y="0" width="900" height="600" fill="#FFFFFF"></rect><g fill="#615dc7"><circle r="30" cx="61" cy="299"></circle><circle r="4" cx="525" cy="181"></circle><circle r="27" cx="347" cy="161"></circle><circle r="23" cx="765" cy="75"></circle><circle r="10" cx="409" cy="62"></circle><circle r="21" cx="168" cy="593"></circle><circle r="25" cx="599" cy="235"></circle><circle r="5" cx="245" cy="456"></circle><circle r="24" cx="673" cy="216"></circle><circle r="3" cx="169" cy="227"></circle><circle r="25" cx="702" cy="536"></circle><circle r="4" cx="6" cy="567"></circle><circle r="6" cx="880" cy="485"></circle><circle r="6" cx="358" cy="357"></circle><circle r="22" cx="511" cy="293"></circle><circle r="18" cx="648" cy="44"></circle><circle r="21" cx="108" cy="229"></circle><circle r="19" cx="854" cy="299"></circle><circle r="8" cx="746" cy="139"></circle><circle r="5" cx="131" cy="385"></circle><circle r="28" cx="624" cy="374"></circle><circle r="22" cx="771" cy="301"></circle><circle r="25" cx="339" cy="471"></circle><circle r="9" cx="431" cy="248"></circle><circle r="15" cx="543" cy="450"></circle><circle r="28" cx="566" cy="68"></circle><circle r="4" cx="675" cy="298"></circle><circle r="19" cx="144" cy="298"></circle><circle r="8" cx="490" cy="360"></circle><circle r="24" cx="170" cy="145"></circle><circle r="18" cx="259" cy="18"></circle><circle r="28" cx="87" cy="558"></circle><circle r="23" cx="384" cy="300"></circle><circle r="13" cx="621" cy="495"></circle><circle r="12" cx="792" cy="8"></circle><circle r="21" cx="285" cy="311"></circle><circle r="18" cx="759" cy="411"></circle><circle r="12" cx="271" cy="369"></circle><circle r="27" cx="18" cy="443"></circle><circle r="12" cx="658" cy="160"></circle><circle r="19" cx="42" cy="204"></circle><circle r="6" cx="856" cy="161"></circle><circle r="13" cx="249" cy="126"></circle><circle r="28" cx="594" cy="594"></circle><circle r="21" cx="454" cy="506"></circle><circle r="5" cx="882" cy="423"></circle><circle r="11" cx="319" cy="563"></circle><circle r="5" cx="860" cy="2"></circle><circle r="9" cx="311" cy="46"></circle></g></svg>